<svg width="16" height="16" viewBox="0 0 16 16" fill="none" xmlns="http://www.w3.org/2000/svg">
<g id="board">
<path id="Subtract" fill-rule="evenodd" clip-rule="evenodd" d="M8.16723 0.632558C7.96295 0.462325 7.66622 0.462325 7.46194 0.632558L3.42871 3.99358H5.14961L7.81459 1.77277L10.4796 3.99358H12.2005L8.16723 0.632558Z" fill="#2D2D2D"/>
<path id="Rectangle 818" opacity="0.4" d="M0.46875 6.19753C0.46875 4.98063 1.45524 3.99414 2.67214 3.99414H12.9546C14.1715 3.99414 15.158 4.98063 15.158 6.19753V13.5422C15.158 14.7591 14.1715 15.7456 12.9546 15.7456H2.67214C1.45524 15.7456 0.46875 14.7591 0.46875 13.5422V6.19753Z" fill="#2D2D2D"/>
<path id="Vector 2962 (Stroke)" fill-rule="evenodd" clip-rule="evenodd" d="M3.59082 6.93171C3.59082 6.62748 3.83744 6.38086 4.14167 6.38086H11.4863C11.7905 6.38086 12.0371 6.62748 12.0371 6.93171C12.0371 7.23593 11.7905 7.48255 11.4863 7.48255H4.14167C3.83744 7.48255 3.59082 7.23593 3.59082 6.93171Z" fill="#2D2D2D"/>
<path id="Vector 2963 (Stroke)" fill-rule="evenodd" clip-rule="evenodd" d="M3.59082 9.86921C3.59082 9.56498 3.83744 9.31836 4.14167 9.31836H11.4863C11.7905 9.31836 12.0371 9.56498 12.0371 9.86921C12.0371 10.1734 11.7905 10.4201 11.4863 10.4201H4.14167C3.83744 10.4201 3.59082 10.1734 3.59082 9.86921Z" fill="#2D2D2D"/>
<path id="Vector 2964 (Stroke)" fill-rule="evenodd" clip-rule="evenodd" d="M3.59082 12.8077C3.59082 12.5035 3.83744 12.2568 4.14167 12.2568H7.81398C8.11821 12.2568 8.36483 12.5035 8.36483 12.8077C8.36483 13.1119 8.11821 13.3585 7.81398 13.3585H4.14167C3.83744 13.3585 3.59082 13.1119 3.59082 12.8077Z" fill="#2D2D2D"/>
</g>
</svg>
