<svg width="31" height="31" viewBox="0 0 31 31" fill="none" xmlns="http://www.w3.org/2000/svg">
<path fill-rule="evenodd" clip-rule="evenodd" d="M4.08772 1.60254C3.56951 1.60254 3.14941 2.02263 3.14941 2.54085C3.14941 3.05906 3.56951 3.47916 4.08772 3.47916H6.58988C7.45358 3.47916 8.15374 4.17932 8.15374 5.04301V6.29409C8.15374 6.30075 8.1538 6.30739 8.15394 6.31402V5.0429H10.0304C10.0303 3.14283 8.48997 1.60254 6.58988 1.60254H4.08772Z" fill="white"/>
<path opacity="0.4" d="M8.1543 5.04297H23.1673C25.9311 5.04297 28.1716 7.28348 28.1716 10.0473V16.3027C28.1716 19.0665 25.9311 21.307 23.1673 21.307H13.1586C10.3948 21.307 8.1543 19.0665 8.1543 16.3027V5.04297Z" fill="white"/>
<circle cx="12.5329" cy="25.6862" r="1.87662" fill="white"/>
<circle cx="23.7926" cy="25.6862" r="1.87662" fill="white"/>
<path fill-rule="evenodd" clip-rule="evenodd" d="M22.733 14.5909C22.9875 15.0423 22.8279 15.6146 22.3765 15.8691C20.8562 16.7262 19.5468 17.2385 18.166 17.2411C16.7835 17.2438 15.4715 16.7356 13.9452 15.8673C13.4948 15.6111 13.3374 15.0382 13.5936 14.5878C13.8498 14.1374 14.4227 13.9799 14.8731 14.2362C16.2946 15.0448 17.2643 15.3663 18.1624 15.3645C19.0621 15.3628 20.032 15.0366 21.4548 14.2344C21.9062 13.9799 22.4785 14.1395 22.733 14.5909Z" fill="white"/>
</svg>
