<svg width="13" height="12" viewBox="0 0 13 12" fill="none" xmlns="http://www.w3.org/2000/svg">
<g clip-path="url(#clip0_165_11919)">
<path d="M8.39713 5.29166C8.02636 5.66243 7.42522 5.66243 7.05445 5.29166C6.68367 4.92089 6.68367 4.31975 7.05445 3.94898C7.42522 3.57821 8.02636 3.57821 8.39713 3.94898C8.7679 4.31975 8.7679 4.92089 8.39713 5.29166Z" stroke="#2D2D2D" stroke-width="0.854479"/>
<path d="M5.15549 2.49295C5.55278 2.09565 6.10151 1.88947 6.65767 1.92852L8.53957 2.06064C9.47924 2.12661 10.2212 2.86858 10.2872 3.80826L10.4193 5.69016C10.4584 6.24632 10.2522 6.79505 9.85488 7.19234L6.73824 10.309C5.98661 11.0606 4.77615 11.0688 4.03461 10.3272L2.02058 8.31322C1.27904 7.57168 1.28721 6.36122 2.03884 5.60959L5.15549 2.49295Z" stroke="#2D2D2D" stroke-width="0.854479" stroke-linejoin="round"/>
</g>
<defs>
<clipPath id="clip0_165_11919">
<rect width="11.3931" height="11.3931" fill="white" transform="translate(0.6875 0.266602)"/>
</clipPath>
</defs>
</svg>
