<svg width="40" height="39" viewBox="0 0 40 39" fill="none" xmlns="http://www.w3.org/2000/svg">
<path fill-rule="evenodd" clip-rule="evenodd" d="M19.7943 38.7619C30.4367 38.7619 39.0642 30.1345 39.0642 19.492C39.0642 8.84958 30.4367 0.222168 19.7943 0.222168C9.15183 0.222168 0.524414 8.84958 0.524414 19.492C0.524414 30.1345 9.15183 38.7619 19.7943 38.7619Z" fill="#2D2D2D"/>
<rect width="22.1335" height="22.1335" transform="translate(8.28906 8.52295)" fill="#2D2D2D"/>
<path d="M24.889 11.2896H22.1223C19.5757 11.2896 17.5112 13.354 17.5112 15.9007V17.7452H13.8223V21.4341H17.5112V27.8897H21.2001V21.4341H24.889V17.7452H21.2001V15.9007C21.2001 15.3914 21.613 14.9785 22.1223 14.9785H24.889V11.2896Z" stroke="#5C7E64" stroke-width="1.38335" stroke-linecap="round" stroke-linejoin="round"/>
</svg>
