<svg width="39" height="39" viewBox="0 0 39 39" fill="none" xmlns="http://www.w3.org/2000/svg">
<path fill-rule="evenodd" clip-rule="evenodd" d="M38.5397 19.492C38.5397 30.1345 29.9124 38.7619 19.2699 38.7619C8.62737 38.7619 0 30.1345 0 19.492C0 8.8496 8.62737 0.222168 19.2699 0.222168C29.9124 0.222168 38.5397 8.8496 38.5397 19.492Z" fill="#2D2D2D"/>
<rect width="22.1335" height="22.1335" transform="translate(8.2998 8.52295)" fill="#2D2D2D"/>
<circle cx="11.989" cy="12.2116" r="1.84446" stroke="#5C7E64" stroke-width="1.38335"/>
<path d="M10.1445 16.3618H13.8335V28.8119H10.1445V16.3618Z" stroke="#5C7E64" stroke-width="1.38335" stroke-linejoin="round"/>
<path d="M16.5996 28.8119H20.2885V22.3563C20.2885 21.3376 21.1143 20.5119 22.133 20.5119C23.1517 20.5119 23.9775 21.3376 23.9775 22.3563V28.8119H27.6664V22.3563C27.6664 19.3003 25.189 16.8229 22.133 16.8229C21.4863 16.8229 20.8654 16.9339 20.2885 17.1378V16.3618H16.5996V28.8119ZM16.5996 28.8119V22.3563" stroke="#5C7E64" stroke-width="1.38335" stroke-linejoin="round"/>
</svg>
