<svg width="39" height="39" viewBox="0 0 39 39" fill="none" xmlns="http://www.w3.org/2000/svg">
<path fill-rule="evenodd" clip-rule="evenodd" d="M19.3177 38.7619C29.9602 38.7619 38.5876 30.1345 38.5876 19.492C38.5876 8.84958 29.9602 0.222168 19.3177 0.222168C8.67527 0.222168 0.0478516 8.84958 0.0478516 19.492C0.0478516 30.1345 8.67527 38.7619 19.3177 38.7619Z" fill="#2D2D2D"/>
<rect width="22.1335" height="22.1335" transform="translate(8.17871 8.52295)" fill="#2D2D2D"/>
<path d="M19.245 12.5805C16.4372 12.5805 14.197 14.6991 14.197 17.2706C14.197 17.4415 14.2068 17.6101 14.2259 17.7761C14.2852 18.2911 14.062 18.8277 13.588 19.0376C12.8878 19.3476 12.0559 19.0066 11.9409 18.2495C11.8923 17.9296 11.8672 17.6028 11.8672 17.2706C11.8672 13.4393 15.1902 10.3672 19.245 10.3672C23.2998 10.3672 26.6229 13.4393 26.6229 17.2706C26.6229 21.102 23.2998 24.1741 19.245 24.1741C18.7888 24.1741 18.3416 24.1352 17.9071 24.0607L16.6314 28.0281C16.4434 28.6127 15.7923 28.9418 15.177 28.7632C14.5617 28.5847 14.2152 27.9661 14.4032 27.3816L18.1309 15.788C18.3189 15.2035 18.97 14.8743 19.5853 15.0529C20.2006 15.2314 20.5471 15.85 20.3591 16.4346L18.5946 21.9223C18.8073 21.9477 19.0243 21.9608 19.245 21.9608C22.0528 21.9608 24.293 19.8422 24.293 17.2706C24.293 14.6991 22.0528 12.5805 19.245 12.5805Z" stroke="#5C7E64" stroke-width="1.38335" stroke-linecap="round"/>
</svg>
