<svg width="10" height="9" viewBox="0 0 10 9" fill="none" xmlns="http://www.w3.org/2000/svg">
<path d="M4.54334 0.213815C4.64781 0.00211892 4.94969 0.00211862 5.05416 0.213815L6.23923 2.61502C6.28072 2.69909 6.36092 2.75735 6.45369 2.77083L9.10357 3.15588C9.3372 3.18983 9.43048 3.47693 9.26143 3.64171L7.34395 5.51079C7.27682 5.57622 7.24619 5.6705 7.26204 5.7629L7.71469 8.40208C7.7546 8.63475 7.51038 8.81219 7.30142 8.70234L4.93129 7.45628C4.84832 7.41266 4.74919 7.41266 4.66621 7.45628L2.29608 8.70234C2.08712 8.81219 1.8429 8.63476 1.88281 8.40208L2.33546 5.7629C2.35131 5.6705 2.32068 5.57622 2.25355 5.51079L0.336071 3.64171C0.167022 3.47693 0.260305 3.18983 0.493925 3.15588L3.14381 2.77083C3.23658 2.75735 3.31678 2.69909 3.35827 2.61502L4.54334 0.213815Z" fill="#2D2D2D"/>
</svg>
