<svg width="18" height="18" viewBox="0 0 18 18" fill="none" xmlns="http://www.w3.org/2000/svg">
<path fill-rule="evenodd" clip-rule="evenodd" d="M5.14258 11.8809V15.1239C5.14258 15.6435 5.66737 15.9988 6.14981 15.8058L8.54212 14.8489C8.71723 14.7789 8.91256 14.7789 9.08767 14.8489L11.48 15.8058C11.9624 15.9988 12.4872 15.6435 12.4872 15.1239V11.8809C12.3269 11.9518 12.1525 11.9971 11.9693 12.0118L11.2813 12.0667C10.9469 12.0933 10.6295 12.2248 10.3742 12.4424L9.84879 12.8901C9.25302 13.3978 8.37677 13.3978 7.781 12.8901L7.25564 12.4424C7.00033 12.2248 6.68291 12.0933 6.34854 12.0667L5.66047 12.0118C5.47727 11.9971 5.30293 11.9518 5.14258 11.8809Z" fill="#2D2D2D"/>
<path opacity="0.4" d="M7.78029 1.90031C8.37606 1.3926 9.25231 1.3926 9.84808 1.90031L10.3734 2.34803C10.6287 2.56559 10.9462 2.69707 11.2805 2.72376L11.9686 2.77867C12.7489 2.84093 13.3685 3.46054 13.4308 4.24082L13.4857 4.92888C13.5123 5.26325 13.6438 5.58068 13.8614 5.83598L14.3091 6.36134C14.8168 6.95711 14.8168 7.83337 14.3091 8.42913L13.8614 8.9545C13.6438 9.2098 13.5123 9.52723 13.4857 9.86159L13.4308 10.5497C13.3685 11.3299 12.7489 11.9495 11.9686 12.0118L11.2805 12.0667C10.9462 12.0934 10.6287 12.2249 10.3734 12.4424L9.84808 12.8902C9.25231 13.3979 8.37606 13.3979 7.78029 12.8902L7.25492 12.4424C6.99962 12.2249 6.68219 12.0934 6.34783 12.0667L5.65976 12.0118C4.87948 11.9495 4.25988 11.3299 4.19761 10.5497L4.1427 9.86159C4.11602 9.52723 3.98454 9.2098 3.76697 8.9545L3.31926 8.42913C2.81155 7.83336 2.81155 6.95711 3.31926 6.36134L3.76697 5.83598C3.98454 5.58068 4.11602 5.26325 4.1427 4.92888L4.19761 4.24081C4.25988 3.46054 4.87948 2.84093 5.65976 2.77867L6.34783 2.72376C6.68219 2.69707 6.99962 2.56559 7.25492 2.34803L7.78029 1.90031Z" fill="#2D2D2D"/>
</svg>
