<svg width="39" height="39" viewBox="0 0 39 39" fill="none" xmlns="http://www.w3.org/2000/svg">
<path fill-rule="evenodd" clip-rule="evenodd" d="M19.556 38.7619C30.1985 38.7619 38.8259 30.1345 38.8259 19.492C38.8259 8.84958 30.1985 0.222168 19.556 0.222168C8.91355 0.222168 0.286133 8.84958 0.286133 19.492C0.286133 30.1345 8.91355 38.7619 19.556 38.7619Z" fill="#2D2D2D"/>
<rect width="22.1335" height="22.1335" transform="translate(8.24609 8.52295)" fill="#2D2D2D"/>
<path d="M22.3432 12.2119C20.403 12.2119 18.8301 13.8635 18.8301 15.9008C18.8301 16.2087 18.866 16.5078 18.9337 16.7936C16.8228 16.7936 13.5027 16.3107 11.0127 13.0317C11.0127 21.2293 14.3327 23.5519 15.9927 23.6886C14.7477 24.9182 12.8078 25.8284 11.0127 25.9996C11.785 26.7007 14.204 26.9371 15.317 26.9676C21.0725 26.9676 25.7504 22.1233 25.8545 16.1058C26.9584 15.388 27.4826 13.442 27.6129 13.0317C27.0751 13.5964 25.9528 13.8514 25.0585 13.56C24.4142 12.7369 23.4371 12.2119 22.3432 12.2119Z" stroke="#5C7E64" stroke-width="1.38335" stroke-linejoin="round"/>
</svg>
